# xmcd
# 
# Track frame offsets:
#     150
#     15900
#     38717
#     58139
#     76258
#     85200
#     96341
#     123069
#     133248
#     146532
#     158546
#     181536
#     195316
#     211905
# 
# Disc length: 3059
# 
# Revision: 0
# Processed by: cddbd v1.5.2PL0 Copyright (c) Steve Scherf et al.
# Submitted via: fre:ac v1.0.17
# 
DISCID=a60bf10e
DTITLE=Kåre Virud - Sitte Fast På Notodden...
DYEAR=2005
DGENRE=Rock
TTITLE0=Eskimoen Quinn
TTITLE1=Det Ække Meg, Tjei
TTITLE2=Kjære Rikstelefondame
TTITLE3=Akkurat Som Ei Dame
TTITLE4=Jeg Skal Være Mann Din I Natt
TTITLE5=Tru Hva Du Trur, Det Er Greitt
TTITLE6=Sitte Fast På Notodden Med Briskeby Blues På Nytt
TTITLE7=På Kjøret Igjen
TTITLE8=Stiller Et Døgn For Mye
TTITLE9=Svever I Det Blå
TTITLE10=Når Som Helst Nå
TTITLE11=Sitte Fast På Notodden Med Briskeby Blues På Nytt (Bonus)
TTITLE12=Mannen I Meg (Bonus)
TTITLE13=Alt Som Var Er Over, Søster Blå (Bonus)
EXTD=
EXTT0=
EXTT1=
EXTT2=
EXTT3=
EXTT4=
EXTT5=
EXTT6=
EXTT7=
EXTT8=
EXTT9=
EXTT10=
EXTT11=
EXTT12=
EXTT13=
PLAYORDER=
